<?xml version="1.0" encoding="UTF-8" standalone="no"?>
<svg
   xmlns:dc="http://purl.org/dc/elements/1.1/"
   xmlns:cc="http://creativecommons.org/ns#"
   xmlns:rdf="http://www.w3.org/1999/02/22-rdf-syntax-ns#"
   xmlns:svg="http://www.w3.org/2000/svg"
   xmlns="http://www.w3.org/2000/svg"
   enable-background="new"
   xml:space="preserve"
   style="enable-background:new 0 0 408.788 408.788;"
   viewBox="0 0 408.788 408.788"
   y="0px"
   x="0px"
   id="Layer_1"
   version="1.1"><metadata
     id="metadata121"><rdf:RDF><cc:Work
         rdf:about=""><dc:format>image/svg+xml</dc:format><dc:type
           rdf:resource="http://purl.org/dc/dcmitype/StillImage" /><dc:title></dc:title></cc:Work></rdf:RDF></metadata><defs
     id="defs119" /><g
     style=""
     id="layer3"><rect
       ry="0"
       rx="51.023602"
       y="131.99612"
       x="146.39571"
       height="275.19193"
       width="118.39652"
       id="rect4659"
       style="opacity:0;fill:#0000ff;stroke:#008100;stroke-opacity:1" /><rect
       ry="0"
       rx="97.894287"
       y="39.521698"
       x="65.945137"
       height="367.57669"
       width="293.15466"
       id="rect4661"
       style="opacity:0;fill:#0000ff;stroke:#008100;stroke-width:1.46993589;stroke-opacity:1" /><rect
       rx="72.393951"
       y="25.589712"
       x="69.141808"
       height="384.34509"
       width="307.5939"
       id="rect4663"
       style="opacity:1;fill:#ffffff;fill-opacity:1;stroke:none;stroke-width:1.27095866;stroke-opacity:1;paint-order:markers fill stroke" /></g><g
     id="g86" /><g
     id="g88" /><g
     id="g90" /><g
     id="g92" /><g
     id="g94" /><g
     id="g96" /><g
     id="g98" /><g
     id="g100" /><g
     id="g102" /><g
     id="g104" /><g
     id="g106" /><g
     id="g108" /><g
     id="g110" /><g
     id="g112" /><g
     id="g114" /><g
     style="display:inline"
     id="layer2"><path
       id="path84"
       d="M 354.42125,0.4000512 H 55.807239 c -30.422,0 -55.0849997,24.6619998 -55.0849997,55.0850018 V 354.10105 c 0,30.423 24.6619997,55.085 55.0849997,55.085 H 203.08224 l 0.251,-146.078 h -37.951 c -4.932,0 -8.935,-3.988 -8.954,-8.92 l -0.182,-47.087 c -0.019,-4.959 3.996,-8.989 8.955,-8.989 h 37.882 v -45.498 c 0,-52.800001 32.247,-81.549997 79.348,-81.549997 h 38.65001 c 4.945,0 8.955,4.009 8.955,8.955 v 39.703997 c 0,4.944 -4.007,8.952 -8.95,8.955 l -23.71901,0.011 c -25.615,0 -30.575,12.172 -30.575,30.035 v 39.389 h 56.28501 c 5.363,0 9.524,4.683 8.892,10.009 l -5.581,47.087 c -0.534,4.506 -4.355,7.901 -8.892,7.901 h -50.45301 l -0.251,146.078 h 87.63101 c 30.422,0 55.084,-24.662 55.084,-55.084 V 55.485053 c -10e-4,-30.423002 -24.663,-55.0850018 -55.086,-55.0850018 z"
       style="fill:#475993" /></g></svg>